<svg id="logo" xmlns="http://www.w3.org/2000/svg" xmlns:xlink="http://www.w3.org/1999/xlink" width="139.5" height="232.164" viewBox="0 0 139.5 232.164">
  <defs>
    <clipPath id="clip-path">
      <rect id="Rectangle_6" data-name="Rectangle 6" width="139.5" height="232.164" fill="none"/>
    </clipPath>
  </defs>
  <g id="Group_12" data-name="Group 12" clip-path="url(#clip-path)">
    <path id="Path_24" data-name="Path 24" d="M6.822,72.307c1.139,18.207,9.732,34.905,24.2,47.02a4.349,4.349,0,0,0,3.042.994,4.3,4.3,0,0,0,2.9-1.325l9.066-9.617A56.748,56.748,0,0,0,82.475,120.1H82.5a4.061,4.061,0,0,0,3.955-4.17l-.881-15.587a4.124,4.124,0,0,0-4.427-3.75,30.826,30.826,0,0,1-21.579-7.183,27.094,27.094,0,0,1-2.249-39.8A30.44,30.44,0,0,1,77.79,40.312c.065,0,.13,0,.2-.011a4.061,4.061,0,0,0,3.956-4.17L81.289,24.54A47.645,47.645,0,0,1,110,35.549a4.389,4.389,0,0,0,5.94-.331l11.667-12.374a3.811,3.811,0,0,0-.351-5.6A74.714,74.714,0,0,0,74.871.122C35,2.339,4.468,34.721,6.822,72.307m26.339-1.53A42.02,42.02,0,0,1,45,39.172,47.017,47.017,0,0,1,72.892,25.1l.435,7.7A38.74,38.74,0,0,0,51.057,44.3c-14.123,14.812-12.83,37.693,2.884,51.006a39.264,39.264,0,0,0,23.439,9.2l.435,7.7a47.65,47.65,0,0,1-29.317-11.2A42.572,42.572,0,0,1,33.161,70.777M75.367,8.042a66.219,66.219,0,0,1,43.061,12.593l-6.091,6.46A56.793,56.793,0,0,0,75.906,16.649C45.7,18.329,22.573,42.858,24.356,71.332A49.993,49.993,0,0,0,39.644,104.2l-6.09,6.462a58.37,58.37,0,0,1-18.33-38.828C13.145,38.621,40.125,10,75.367,8.042" transform="translate(2.069 0)" fill="#a08650"/>
    <path id="Path_25" data-name="Path 25" d="M59.094,45.107H78.823a3.822,3.822,0,0,1,3.93,3.7v18.6a3.822,3.822,0,0,1-3.93,3.7H59.094a3.822,3.822,0,0,1-3.93-3.7v-18.6a3.822,3.822,0,0,1,3.93-3.7" transform="translate(17.046 10.548)" fill="#4c4c4c"/>
    <path id="Path_26" data-name="Path 26" d="M18.535,127.875c1.066.941,1.066,2.07,1.066,5.018h-.865c-.2-3.261-2.462-4.328-5.591-4.328-4.46,0-6.389,2.886-6.389,7.4a9.32,9.32,0,0,0,1.53,5.583,5.474,5.474,0,0,0,4.792,2.258H39.034c-3.528-1.568-5.658-4.328-5.658-7.841,0-5.583,5.457-9.159,14.043-9.159H57.868v.627h-.6c-2.063,0-2.329,1.129-2.329,2.823v15.118H12.212a11.07,11.07,0,0,1-7.721-2.76A9.063,9.063,0,0,1,1.7,135.967a9.305,9.305,0,0,1,2.795-6.712,11.07,11.07,0,0,1,7.721-2.761C15.341,126.494,17.471,126.933,18.535,127.875Zm31.48,1.192a10.892,10.892,0,0,0-7.854.565,6.876,6.876,0,0,0-3.927,6.4,7.334,7.334,0,0,0,6.723,7.778h5.058Zm-2.93-8.03a2.5,2.5,0,1,1-2.462-2.321A2.442,2.442,0,0,1,47.086,121.037Zm21.956-2.195c-2.6,0-2.861,1.129-2.861,2.823v23.712H61.188V118.214l7.854.063Zm23.825,8.594c-1.931,0-2.263,1.066-2.263,2.76v13.613H96.46v1.568H90.47v.879a7.306,7.306,0,0,1-3.46,6.523,15.615,15.615,0,0,1-5.125,1.946c-.332.062-.6.062-.666-.063-.132-.063-.065-.189.134-.315a7.3,7.3,0,0,0,3.595-4.014,13.626,13.626,0,0,0,.732-4.956H82.218a16.529,16.529,0,0,1-9.517-2.634,7.914,7.914,0,0,1-3.661-6.65c0-5.708,5.457-9.346,14.043-9.346H93.532v.69Zm-19.034,8.657c0,4.768,3.194,7.466,7.453,7.9h4.326V129a11.359,11.359,0,0,0-3.261-.439C77.36,128.564,73.833,131.074,73.833,136.092Zm33.14-17.313c-1.931,0-2.263,1.066-2.263,2.76v6.9l.2-.189c1-.941,2.928-1.318,5.79-1.318h16.638a10.807,10.807,0,0,1,7.587,2.7,9.162,9.162,0,0,1,0,13.048,10.806,10.806,0,0,1-7.587,2.7H93.8v-1.568h5.923V118.089h7.92v.69Zm3.194,10.162c-2.861,0-5.125.941-5.457,3.952v10.916h21.829c4.26,0,6.19-3.325,6.19-7.654s-2-7.214-6.256-7.214Z" transform="translate(0.524 27.614)" fill="#4c4c4c"/>
    <text id="Tawaf" transform="translate(0 213.815)" fill="#4c4c4c" font-size="57" font-family="Helvetica"><tspan x="0" y="0" letter-spacing="0.1em">T</tspan><tspan y="0" letter-spacing="0.099em">aw</tspan><tspan y="0" letter-spacing="0.1em">a</tspan><tspan y="0">f</tspan></text>
  </g>
</svg>
