<svg id="Layer_1" data-name="Layer 1" xmlns="http://www.w3.org/2000/svg" viewBox="0 0 141.73 141.73"><defs><style>.cls-1{fill:#1d1d1b;}</style></defs><path id="Icon_awesome-bell" data-name="Icon awesome-bell" class="cls-1" d="M72,107.91a8.67,8.67,0,0,0,8.67-8.67H63.3A8.67,8.67,0,0,0,72,107.91Zm29.19-20.28c-2.62-2.82-7.51-7-7.51-20.91a21.41,21.41,0,0,0-17.34-21V42.87a4.34,4.34,0,0,0-8.68,0v2.82a21.41,21.41,0,0,0-17.34,21c0,13.86-4.9,18.09-7.52,20.91a4.22,4.22,0,0,0-1.15,2.94A4.34,4.34,0,0,0,46,94.91H98a4.36,4.36,0,0,0,4.35-4.33h0A4.27,4.27,0,0,0,101.16,87.63Z"/></svg>