<svg id="Layer_1" data-name="Layer 1" xmlns="http://www.w3.org/2000/svg" viewBox="0 0 141.73 141.73"><defs><style>.cls-1{fill:#1d1d1b;}</style></defs><path id="Icon_ionic-ios-settings" data-name="Icon ionic-ios-settings" class="cls-1" d="M99.82,72.22a8.91,8.91,0,0,1,5.72-8.33,35.45,35.45,0,0,0-4.28-10.31,9.07,9.07,0,0,1-3.63.78,8.9,8.9,0,0,1-8.14-12.54A35.63,35.63,0,0,0,79.2,37.53a8.92,8.92,0,0,1-16.65,0,35.39,35.39,0,0,0-10.32,4.28,8.91,8.91,0,0,1-4.5,11.76,9,9,0,0,1-3.65.78,8.91,8.91,0,0,1-3.63-.78,36.13,36.13,0,0,0-4.26,10.32,8.92,8.92,0,0,1,0,16.65,35.17,35.17,0,0,0,4.28,10.31,8.91,8.91,0,0,1,11.76,11.76,35.57,35.57,0,0,0,10.3,4.29,8.9,8.9,0,0,1,16.61,0,35.39,35.39,0,0,0,10.32-4.28,8.92,8.92,0,0,1,11.75-11.76,35.26,35.26,0,0,0,4.29-10.32A9,9,0,0,1,99.82,72.22ZM71,86.64A14.45,14.45,0,1,1,85.48,72.19,14.45,14.45,0,0,1,71,86.64Z"/></svg>