<svg id="Layer_1" data-name="Layer 1" xmlns="http://www.w3.org/2000/svg" viewBox="0 0 141.73 141.73"><defs><style>.cls-1{fill:#1d1d1b;}</style></defs><g id="Group_21351" data-name="Group 21351"><path id="Path_21968" data-name="Path 21968" class="cls-1" d="M62.29,67.82c.67,1.54,1.36-16.45,1.36-16.45s-.58-4.26,3-4.23,3,4.23,3,4.23-.11,8.25,0,17.37A83.29,83.29,0,0,1,68.33,85.5c-.81,2.38-2.38,4.67-2.91,6.12a34.16,34.16,0,0,0-.53,6.54h-19a24.53,24.53,0,0,0,0-5.55c-.4-1.68-15.52-20.39-15.52-20.39a3.08,3.08,0,0,1-.06-4.35l.06-.06c2.08-2.49,5.22,0,5.22,0L44,77.93,41.66,48.44s-.45-4,2.38-4,3.3,4,3.3,4l2.19,19.38-.92-24.76s-.51-5.15,3-5.15,3.41,5.15,3.41,5.15.24,24.07.93,24.76,0-22.58,0-22.58,0-3.91,2.83-3.91,3.08,3.91,3.08,3.91S61.63,66.28,62.29,67.82Z"/><path id="Rectangle_17664" data-name="Rectangle 17664" class="cls-1" d="M48.46,96.38H59.79a6.15,6.15,0,0,1,6.15,6.15v4H42.32v-4A6.14,6.14,0,0,1,48.46,96.38Z"/></g><g id="Group_21352" data-name="Group 21352"><path id="Path_21968-2" data-name="Path 21968-2" class="cls-1" d="M79.44,67.83c-.66,1.53-1.35-16.45-1.35-16.45s.58-4.26-3-4.23-3,4.23-3,4.23.11,8.24,0,17.37A84.09,84.09,0,0,0,73.4,85.51c.81,2.37,2.39,4.66,2.91,6.12a33.31,33.31,0,0,1,.53,6.54h19a24.61,24.61,0,0,1,0-5.56c.41-1.67,15.52-20.39,15.52-20.39a3.07,3.07,0,0,0,.06-4.34l-.06-.06c-2.08-2.49-5.22,0-5.22,0L97.7,77.93l2.37-29.48s.45-4.06-2.37-4.06-3.31,4.06-3.31,4.06L92.2,67.83l.93-24.76s.5-5.15-3-5.15-3.41,5.15-3.41,5.15-.23,24.06-.92,24.76,0-22.59,0-22.59,0-3.91-2.84-3.91-3.07,3.91-3.07,3.91S80.1,66.29,79.44,67.83Z"/><path id="Rectangle_17664-2" data-name="Rectangle 17664-2" class="cls-1" d="M81.71,97.25H93.52a6.14,6.14,0,0,1,6.14,6.14v3.12H75.56v-3.12A6.14,6.14,0,0,1,81.71,97.25Z"/></g></svg>