<svg id="Layer_1" data-name="Layer 1" xmlns="http://www.w3.org/2000/svg" viewBox="0 0 141.73 141.73"><defs><style>.cls-1{fill:#1d1d1b;}</style></defs><path id="pray-01" class="cls-1" d="M78.71,65.38c1.22.37,2.44.73,3.64,1.13a44.08,44.08,0,0,1,9.56,4.6,10.7,10.7,0,0,1,5.3,9.36c.08,7.79,0,15.58,0,23.37,0,1.33-.64,1.87-2.1,1.87H48.82c-1.59,0-2.13-.54-2.13-2.14V80.79A10.83,10.83,0,0,1,52.16,71a45.17,45.17,0,0,1,12.48-5.43l.55-.17.26-.27a1.78,1.78,0,0,1-.6-.25,21,21,0,0,1-7.06-14.36,13.81,13.81,0,0,1,8.66-13.25A14.23,14.23,0,0,1,86,47.74a16.65,16.65,0,0,1-1.21,9,20.61,20.61,0,0,1-5.59,8.16,4.26,4.26,0,0,0-.38.35S78.73,65.3,78.71,65.38Zm5.82,20.8c0-.29,0-.45,0-.61,0-1.26.64-2,1.62-2s1.55.76,1.56,2v16.84H94a1.43,1.43,0,0,0,0-.29c0-7.32,0-14.65,0-22a7.36,7.36,0,0,0-3.77-6.4c-1-.61-2-1.14-3-1.68a29.7,29.7,0,0,0-20.49-3.82c-1.72.34-3.4.89-5.27,1.39A54.6,54.6,0,0,0,84.53,86.18ZM82.92,48.93H61A7.45,7.45,0,0,0,60.91,50a17.45,17.45,0,0,0,6.36,12.86,7,7,0,0,0,9.64-.17,17.81,17.81,0,0,0,5.71-9.62A10.3,10.3,0,0,0,82.92,48.93Z"/></svg>