<svg id="Layer_1" data-name="Layer 1" xmlns="http://www.w3.org/2000/svg" viewBox="0 0 141.73 141.73"><defs><style>.cls-1{fill:#1d1d1b;}</style></defs><path id="Icon_awesome-info-circle" data-name="Icon awesome-info-circle" class="cls-1" d="M66.17,35.9a35,35,0,1,0,35,35h0A35,35,0,0,0,66.17,35.9Zm0,15.51a5.92,5.92,0,1,1-5.92,5.92v0A5.92,5.92,0,0,1,66.17,51.41Zm7.9,35.81a1.69,1.69,0,0,1-1.69,1.69H60a1.68,1.68,0,0,1-1.69-1.69V83.84A1.68,1.68,0,0,1,60,82.15h1.69v-9H60a1.7,1.7,0,0,1-1.7-1.69V68A1.7,1.7,0,0,1,60,66.35h9A1.69,1.69,0,0,1,70.68,68v14.1h1.69a1.7,1.7,0,0,1,1.7,1.69Z"/></svg>